<svg id="Layer_1" data-name="Layer 1" xmlns="http://www.w3.org/2000/svg" viewBox="0 0 48 48" width="48" height="48" shape-rendering="geometricPrecision">
  <path d="M42.783,5.217c-4.289-4.289-11.267-4.289-15.556,0l-9.9,9.899c-4.289,4.289-4.289,11.267,0,15.556,.736,.736,1.556,1.336,2.423,1.82l4.666-4.666c-1.041-.144-2.048-.597-2.846-1.396-1.949-1.949-1.949-5.122,0-7.071l9.899-9.9c1.949-1.949,5.122-1.949,7.071,0s1.949,5.122,0,7.071l-3.646,3.646c1.022,2.496,1.243,5.236,.656,7.829l7.232-7.232c4.289-4.289,4.289-11.267,0-15.556Z" id="id_105" style="fill: rgb(134, 143, 153);"></path>
  <path d="M30.673,17.327c-.736-.736-1.556-1.336-2.423-1.82l-4.666,4.666c1.041,.144,2.048,.597,2.846,1.396,1.949,1.949,1.949,5.122,0,7.071l-9.899,9.899c-1.949,1.949-5.122,1.949-7.071,0-1.949-1.949-1.949-5.122,0-7.071l3.635-3.635c-1.032-2.513-1.232-5.257-.641-7.844l-7.237,7.237c-4.289,4.289-4.289,11.267,0,15.556,4.289,4.289,11.267,4.289,15.556,0l9.9-9.9c4.289-4.289,4.289-11.267,0-15.556Z" id="id_106" style="fill: rgb(88, 141, 201);"></path>
</svg>