<svg width="512" height="512" viewBox="0 0 512 512" fill="none" xmlns="http://www.w3.org/2000/svg" transform="scale(-1, 1)">
<path d="M105.141 326.806C98.2408 326.381 91.6158 330.246 84.9878 338.561C81.9795 336.452 78.836 334.543 75.5778 332.845C73.6883 331.951 71.5237 331.831 69.5473 332.513C67.5709 333.194 65.9398 334.622 65.003 336.491C64.0662 338.36 63.8982 340.521 64.5349 342.512C65.1716 344.503 66.5624 346.166 68.4098 347.145C73.633 349.944 78.5208 353.329 82.9788 357.233C88.9188 362.487 95.9998 370.7 95.9998 380C95.9998 382.122 96.8426 384.157 98.3429 385.657C99.8432 387.157 101.878 388 104 388C106.121 388 108.156 387.157 109.657 385.657C111.157 384.157 112 382.122 112 380C112 367.272 105.086 356.692 97.2808 348.794C101.317 343.64 103.643 342.886 104.088 342.794C104.426 343.058 104.712 343.381 104.932 343.749C104.899 343.695 104.87 343.64 104.845 343.583L119.155 336.427C118.693 335.5 114.376 327.381 105.141 326.806Z" fill="#3f5391" id="id_101"></path>
<path d="M187.5 350.192C189.352 349.401 191.346 348.997 193.36 349.006C195.537 349.082 198.321 349.768 200.684 354.282C187.933 365.643 184 381.713 184 391C184.001 393.111 184.839 395.137 186.33 396.632C187.821 398.127 189.844 398.97 191.955 398.977H192C194.109 398.972 196.131 398.137 197.628 396.652C199.125 395.167 199.977 393.152 200 391.044C200.012 389.987 200.583 365.101 225.94 358.761C227.985 358.234 229.739 356.92 230.819 355.105C231.899 353.291 232.218 351.123 231.706 349.074C231.194 347.025 229.892 345.262 228.085 344.169C226.278 343.076 224.113 342.742 222.06 343.239C219.409 343.898 216.81 344.753 214.284 345.796C205.548 330.491 189.424 331.344 180.422 335.845C178.54 336.796 177.11 338.452 176.442 340.452C175.775 342.452 175.924 344.635 176.857 346.526C177.79 348.416 179.432 349.862 181.426 350.549C183.42 351.236 185.604 351.107 187.503 350.192H187.5Z" fill="#3f5391" id="id_102"></path>
<path d="M496 168C498.122 168 500.157 167.157 501.657 165.657C503.157 164.157 504 162.122 504 160V112C504 109.878 503.157 107.843 501.657 106.343C500.157 104.843 498.122 104 496 104H456V64C456 61.8783 455.157 59.8434 453.657 58.3431C452.157 56.8429 450.122 56 448 56H408V16C408 13.8783 407.157 11.8434 405.657 10.3431C404.157 8.84285 402.122 8 400 8H352C349.878 8 347.843 8.84285 346.343 10.3431C344.843 11.8434 344 13.8783 344 16V56H296V16C296 13.8783 295.157 11.8434 293.657 10.3431C292.157 8.84285 290.122 8 288 8H240C237.878 8 235.843 8.84285 234.343 10.3431C232.843 11.8434 232 13.8783 232 16V56H184V16C184 13.8783 183.157 11.8434 181.657 10.3431C180.157 8.84285 178.122 8 176 8H128C125.878 8 123.843 8.84285 122.343 10.3431C120.843 11.8434 120 13.8783 120 16V56H80C77.8783 56 75.8434 56.8429 74.3432 58.3431C72.8429 59.8434 72 61.8783 72 64V104H32C29.8783 104 27.8434 104.843 26.3432 106.343C24.8429 107.843 24 109.878 24 112V160C24 162.122 24.8429 164.157 26.3432 165.657C27.8434 167.157 29.8783 168 32 168H72V216H32C29.8783 216 27.8434 216.843 26.3432 218.343C24.8429 219.843 24 221.878 24 224V272C24 274.122 24.8429 276.157 26.3432 277.657C27.8434 279.157 29.8783 280 32 280H42.7C36.9443 285.781 32.9381 293.07 31.1424 301.027C29.3468 308.985 29.8347 317.288 32.55 324.98C25.1971 328.51 18.9913 334.046 14.6477 340.95C10.3041 347.853 7.99951 355.844 7.99951 364C7.99951 372.156 10.3041 380.147 14.6477 387.05C18.9913 393.954 25.1971 399.49 32.55 403.02C30.3463 409.265 29.6031 415.933 30.3774 422.51C31.1518 429.087 33.4231 435.4 37.017 440.962C40.611 446.525 45.4319 451.19 51.1096 454.6C56.7873 458.009 63.1708 460.072 69.77 460.63V461.07C69.7704 469.672 72.3327 478.078 77.1301 485.218C81.9274 492.357 88.7425 497.906 96.7061 501.157C104.67 504.407 113.421 505.212 121.844 503.469C130.267 501.726 137.98 497.514 144 491.37C150.02 497.514 157.733 501.726 166.156 503.469C174.579 505.212 183.33 504.407 191.294 501.157C199.258 497.906 206.073 492.357 210.87 485.218C215.667 478.078 218.23 469.672 218.23 461.07V460.63C222.982 460.239 227.636 459.06 232 457.14V480C232 482.122 232.843 484.157 234.343 485.657C235.843 487.157 237.878 488 240 488H288C290.122 488 292.157 487.157 293.657 485.657C295.157 484.157 296 482.122 296 480V440H344V480C344 482.122 344.843 484.157 346.343 485.657C347.843 487.157 349.878 488 352 488H400C402.122 488 404.157 487.157 405.657 485.657C407.157 484.157 408 482.122 408 480V440H448C450.122 440 452.157 439.157 453.657 437.657C455.157 436.157 456 434.122 456 432V392H496C498.122 392 500.157 391.157 501.657 389.657C503.157 388.157 504 386.122 504 384V336C504 333.878 503.157 331.843 501.657 330.343C500.157 328.843 498.122 328 496 328H456V280H496C498.122 280 500.157 279.157 501.657 277.657C503.157 276.157 504 274.122 504 272V224C504 221.878 503.157 219.843 501.657 218.343C500.157 216.843 498.122 216 496 216H456V168H496ZM456 120H488V152H456V120ZM360 24H392V56H360V24ZM248 24H280V56H248V24ZM136 24H168V56H136V24ZM40 152V120H72V152H40ZM40 264V232H72V253.25C70.8375 256.728 70.125 260.341 69.88 264H40ZM135.95 475.95C132.511 481.242 127.345 485.178 121.331 487.09C115.317 489.001 108.826 488.77 102.963 486.434C97.1001 484.099 92.2278 479.804 89.1752 474.281C86.1226 468.757 85.0782 462.347 86.22 456.14C90.9943 453.768 95.2321 450.444 98.6719 446.371C102.112 442.298 104.681 437.564 106.22 432.46C106.825 430.426 106.597 428.235 105.586 426.369C104.575 424.503 102.864 423.115 100.83 422.51C99.8228 422.211 98.7664 422.112 97.7213 422.221C96.6761 422.33 95.6626 422.644 94.7387 423.144C92.8727 424.155 91.4847 425.866 90.88 427.9C89.4532 432.611 86.5531 436.74 82.6059 439.682C78.6587 442.623 73.8724 444.22 68.95 444.24C68.7 444.24 68.45 444.26 68.2 444.28C63.8263 443.433 59.7262 441.529 56.2571 438.734C52.788 435.939 50.0552 432.338 48.297 428.245C46.5388 424.151 45.8085 419.69 46.1698 415.25C46.5312 410.81 47.9731 406.525 50.37 402.77C51.0661 401.686 51.4897 400.45 51.6047 399.167C51.7197 397.884 51.5228 396.592 51.0307 395.401C50.5386 394.211 49.7659 393.157 48.7785 392.33C47.7911 391.502 46.6183 390.926 45.36 390.65C39.3001 389.298 33.8819 385.922 29.9989 381.077C26.1158 376.232 23.9998 370.209 23.9998 364C23.9998 357.791 26.1158 351.768 29.9989 346.923C33.8819 342.078 39.3001 338.702 45.36 337.35C46.6183 337.074 47.7911 336.498 48.7785 335.67C49.7659 334.843 50.5386 333.789 51.0307 332.599C51.5228 331.408 51.7197 330.116 51.6047 328.833C51.4897 327.55 51.0661 326.314 50.37 325.23C47.9731 321.475 46.5312 317.19 46.1698 312.75C45.8085 308.31 46.5388 303.849 48.297 299.755C50.0552 295.662 52.788 292.061 56.2571 289.266C59.7262 286.471 63.8263 284.567 68.2 283.72C68.45 283.74 68.7 283.76 68.95 283.76C73.8724 283.78 78.6587 285.377 82.6059 288.318C86.5531 291.26 89.4532 295.389 90.88 300.1C91.3739 301.751 92.3868 303.199 93.7683 304.229C95.1498 305.26 96.8266 305.818 98.55 305.82C99.3217 305.818 100.089 305.706 100.83 305.49C102.864 304.885 104.574 303.496 105.585 301.631C106.595 299.765 106.824 297.574 106.22 295.54C104.681 290.436 102.112 285.702 98.6719 281.629C95.2321 277.556 90.9943 274.232 86.22 271.86C85.5401 268.163 85.6315 264.365 86.4885 260.705C87.3456 257.044 88.9497 253.601 91.2003 250.589C93.4509 247.578 96.2994 245.065 99.5672 243.206C102.835 241.348 106.452 240.185 110.19 239.79C110.784 239.926 111.391 239.997 112 240C112.762 239.998 113.52 239.887 114.25 239.67C118.591 239.86 122.824 241.082 126.597 243.235C130.371 245.388 133.578 248.41 135.95 252.05V475.95ZM120 224.2V104H408V392H269.64C273.943 386.967 277.03 381.011 278.664 374.594C280.298 368.178 280.435 361.471 279.063 354.993C277.692 348.514 274.849 342.439 270.754 337.234C266.66 332.03 261.423 327.837 255.45 324.98C257.654 318.735 258.397 312.067 257.623 305.49C256.848 298.913 254.577 292.6 250.983 287.038C247.389 281.475 242.568 276.81 236.89 273.4C231.213 269.991 224.829 267.928 218.23 267.37V266.93C218.23 258.328 215.667 249.922 210.87 242.782C206.073 235.643 199.258 230.094 191.294 226.843C183.33 223.593 174.579 222.788 166.156 224.531C157.733 226.274 150.02 230.486 144 236.63C137.528 230.036 129.12 225.681 120 224.2V224.2ZM237.63 402.77C240.024 406.521 241.465 410.8 241.829 415.235C242.192 419.67 241.466 424.127 239.715 428.217C237.963 432.308 235.239 435.908 231.778 438.706C228.318 441.504 224.227 443.414 219.86 444.27C219.68 444.26 219.51 444.24 219.34 444.24C214.416 444.222 209.628 442.625 205.679 439.684C201.729 436.743 198.828 432.612 197.4 427.9C196.795 425.866 195.407 424.155 193.541 423.144C191.675 422.133 189.484 421.905 187.45 422.51C185.416 423.115 183.705 424.503 182.694 426.369C181.683 428.235 181.455 430.426 182.06 432.46C183.583 437.51 186.114 442.199 189.5 446.243C192.886 450.287 197.056 453.603 201.76 455.99C202.073 457.665 202.23 459.366 202.23 461.07C202.23 466.971 200.319 472.713 196.782 477.436C193.245 482.159 188.273 485.609 182.61 487.269C176.947 488.929 170.9 488.71 165.372 486.644C159.845 484.578 155.136 480.777 151.95 475.81V252.19C155.136 247.223 159.845 243.422 165.372 241.356C170.9 239.29 176.947 239.071 182.61 240.731C188.273 242.391 193.245 245.841 196.782 250.564C200.319 255.287 202.23 261.029 202.23 266.93C202.23 268.634 202.073 270.335 201.76 272.01C197.056 274.397 192.886 277.713 189.5 281.757C186.114 285.801 183.583 290.49 182.06 295.54C181.456 297.574 181.685 299.765 182.695 301.631C183.706 303.496 185.416 304.885 187.45 305.49C188.191 305.706 188.958 305.818 189.73 305.82C191.453 305.818 193.13 305.26 194.512 304.229C195.893 303.199 196.906 301.751 197.4 300.1C198.828 295.388 201.729 291.257 205.679 288.316C209.628 285.375 214.416 283.778 219.34 283.76C219.51 283.76 219.68 283.74 219.86 283.73C224.227 284.586 228.318 286.496 231.778 289.294C235.239 292.092 237.963 295.692 239.715 299.783C241.466 303.873 242.192 308.33 241.829 312.765C241.465 317.2 240.024 321.479 237.63 325.23C236.934 326.314 236.51 327.55 236.395 328.833C236.28 330.116 236.477 331.408 236.969 332.599C237.461 333.789 238.234 334.843 239.222 335.67C240.209 336.498 241.382 337.074 242.64 337.35C248.7 338.702 254.118 342.078 258.001 346.923C261.884 351.768 264 357.791 264 364C264 370.209 261.884 376.232 258.001 381.077C254.118 385.922 248.7 389.298 242.64 390.65C241.382 390.926 240.209 391.502 239.222 392.33C238.234 393.157 237.461 394.211 236.969 395.401C236.477 396.592 236.28 397.884 236.395 399.167C236.51 400.45 236.934 401.686 237.63 402.77V402.77ZM280 472H248V445.02C249.314 443.436 250.51 441.758 251.58 440H280V472ZM392 472H360V440H392V472ZM440 424H257.43C258.236 418.678 258.046 413.253 256.87 408H416C418.122 408 420.157 407.157 421.657 405.657C423.157 404.157 424 402.122 424 400V96C424 93.8783 423.157 91.8434 421.657 90.3431C420.157 88.8429 418.122 88 416 88H112C109.878 88 107.843 88.8429 106.343 90.3431C104.843 91.8434 104 93.8783 104 96V224.6C98.2402 225.835 92.7947 228.238 88 231.66V72H440V424ZM488 344V376H456V344H488ZM488 232V264H456V232H488Z" fill="#3f5391" id="id_103"></path>
</svg>